<svg xmlns="http://www.w3.org/2000/svg" viewBox="0 0 32 32" fill="none">
  <!-- Flame base -->
  <path d="M16 28C21.5228 28 26 23.5228 26 18C26 13.5 22 9 18 6C18 9 15 10.5 15 14C13 12 13.5 9 14 7C11 9.5 8 13 8 18C8 23.5228 10.4772 28 16 28Z" fill="#3D5A47"/>
  <!-- Inner flame highlight (top note) -->
  <path d="M16 25C19.3137 25 22 22.3137 22 19C22 16.5 20 14 18 12.5C18 14.5 16.5 15.5 16 17.5C15 16 15.5 14 16 12.5C14 14 13 16 13 19C13 22.3137 12.6863 25 16 25Z" fill="#A8B89A"/>
  <!-- Core spark (heart note) -->
  <circle cx="16" cy="21" r="2.5" fill="#D4E6C3"/>
</svg>
